<?xml version="1.0" encoding="UTF-8"?>
<svg width="16px" height="21px" viewBox="0 0 16 21" version="1.1" xmlns="http://www.w3.org/2000/svg" xmlns:xlink="http://www.w3.org/1999/xlink">
    <title>daochu1024-27</title>
    <g id="工作台" stroke="none" stroke-width="1" fill="none" fill-rule="evenodd">
        <g id="得鹿ONE知乎助手---素材库" transform="translate(-72.000000, -367.000000)" fill-rule="nonzero">
            <g id="插件成本备份-2" transform="translate(48.000000, 193.000000)">
                <g id="编组-3" transform="translate(24.000000, 76.000000)">
                    <g id="daochu1024-27" transform="translate(0.000000, 98.000000)">
                        <path d="M2.70910619,1.44988338 L2.70910619,7.35294833 C2.70910619,10.2320088 5.08995886,12.5875995 8,12.5875995 C10.909994,12.5875995 13.2908938,10.2320088 13.2908938,7.35294833 L13.2908938,1.44988338 L2.70910619,1.44988338 Z" id="路径" fill="#82A0AF"></path>
                        <path d="M4.87335683,1.44988338 L4.87335683,4.93829687 C4.87335683,6.63966705 6.2803262,8.03170357 8,8.03170357 C9.7196502,8.03170357 11.1266432,6.63966705 11.1266432,4.93829687 L11.1266432,1.44988338 L4.87335683,1.44988338 Z" id="路径" fill="#E0EAED"></path>
                        <path d="M11.1266432,1.44988338 L11.1266432,4.93829687 C11.1266432,6.63966705 9.7196502,8.03172691 8,8.03172691 C6.28030261,8.03172691 4.87333324,6.6396904 4.87333324,4.93829687 L4.87333324,1.44988338 L11.1266432,1.44988338 M11.5796906,1.00165187 L4.42028579,1.00165187 L4.42028579,4.93829687 C4.42028579,6.8911772 6.02613735,8.47993508 8,8.47993508 C9.97386265,8.47993508 11.5796906,6.89115385 11.5796906,4.93829687 L11.5796906,1.00165187 Z" id="形状" fill="#FFFFFF"></path>
                        <path d="M0,13.0850405 C0,15.9127832 1.52479133,18.5257252 4,19.9395965 C6.4752086,21.3534678 9.5247914,21.3534678 12,19.9395965 C14.4752087,18.5257252 16,15.9127832 16,13.0850405 C16,8.71372919 12.418278,5.17008119 8,5.17008119 C3.581722,5.17008119 0,8.71372919 0,13.0850405 L0,13.0850405 Z" id="路径" fill="#9EC2F7"></path>
                        <path d="M2.09950598,13.0850405 C2.09950598,16.3091526 4.74124714,18.9228118 8,18.9228118 C11.2587529,18.9228118 13.900494,16.3091526 13.900494,13.0850405 C13.900494,9.86092848 11.2587529,7.24726925 8,7.24726925 C4.74124714,7.24726925 2.09950598,9.86092848 2.09950598,13.0850405 L2.09950598,13.0850405 Z" id="路径" fill="#DDECF7"></path>
                        <path d="M8,7.24726925 C11.2587515,7.24726925 13.900494,9.8609298 13.900494,13.0850405 C13.900494,16.3091513 11.2587515,18.9228118 8,18.9228118 C4.74122488,18.9228118 2.09950598,16.3091513 2.09950598,13.0850405 C2.09950598,9.8609298 4.74124847,7.24726925 8,7.24726925 M8,6.6869857 C4.43418324,6.6869857 1.53320258,9.55715205 1.53320258,13.0850405 C1.53320258,16.612929 4.43418324,19.4830954 8,19.4830954 C11.5658168,19.4830954 14.4667974,16.612929 14.4667974,13.0850172 C14.4667974,9.55710536 11.5658168,6.6869857 8,6.6869857 Z" id="形状" fill="#FFFFFF"></path>
                        <path d="M14.4653817,1.44990673 L1.53461828,1.44990673 C1.13161581,1.44990673 0.801875802,1.12367188 0.801875802,0.724953363 C0.801875802,0.326234849 1.13161581,0 1.53461828,0 L14.4653581,0 C14.8683606,0 15.1981006,0.326234849 15.1981006,0.724953363 C15.1981006,1.12367188 14.8683842,1.44990673 14.4653817,1.44990673 L14.4653817,1.44990673 Z" id="路径" fill="#231815"></path>
                        <path d="M10.6303225,16.0253094 L10.6303225,17.0159896 L5.47009777,17.0159896 L5.47009777,16.2063202 L8.49308814,13.158458 C8.81395644,12.8410005 9.04181328,12.5552678 9.17663506,12.3011898 C9.31136246,12.0473219 9.37882055,11.7741717 9.37882055,11.481996 C9.37882055,11.0629914 9.25515919,10.7295432 9.00819041,10.4820249 C8.76098568,10.2342732 8.42574803,10.1105024 8.00212355,10.1105024 C7.61058825,10.1105024 7.28330212,10.2105322 7.02017077,10.4104517 C6.75692144,10.6104879 6.56768961,10.8947966 6.45221572,11.2629109 L5.55685656,10.7391844 C5.73018537,10.2121663 6.02859123,9.81043635 6.45221572,9.53425141 C6.87572223,9.25804313 7.40531182,9.11984561 8.04063058,9.11984561 C8.53482768,9.11984561 8.97603044,9.2198754 9.36435682,9.41991164 C9.75258881,9.61994788 10.0542036,9.89944769 10.2693427,10.2581543 C10.4842459,10.6169776 10.5918627,11.0217656 10.5918627,11.4726117 C10.5918627,11.9044322 10.4825943,12.2996958 10.2644586,12.6584024 C10.0462285,13.0172257 9.69008568,13.4475055 9.19588857,13.9490318 L7.16459571,16.0253561 L10.6303225,16.0253561 L10.6303225,16.0253094 Z" id="路径" fill="#000000"></path>
                    </g>
                </g>
            </g>
        </g>
    </g>
</svg>