<?xml version="1.0" encoding="UTF-8"?>
<svg width="16px" height="21px" viewBox="0 0 16 21" version="1.1" xmlns="http://www.w3.org/2000/svg" xmlns:xlink="http://www.w3.org/1999/xlink">
    <title>daochu1024-28</title>
    <g id="工作台" stroke="none" stroke-width="1" fill="none" fill-rule="evenodd">
        <g id="得鹿ONE知乎助手---素材库" transform="translate(-72.000000, -465.000000)" fill-rule="nonzero">
            <g id="插件成本备份-2" transform="translate(48.000000, 193.000000)">
                <g id="编组-3" transform="translate(24.000000, 76.000000)">
                    <g id="daochu1024-28" transform="translate(0.000000, 196.000000)">
                        <path d="M2.70910619,1.44988338 L2.70910619,7.35294833 C2.70910619,10.2320088 5.08995886,12.5875995 8,12.5875995 C10.909994,12.5875995 13.2908938,10.2320088 13.2908938,7.35294833 L13.2908938,1.44988338 L2.70910619,1.44988338 Z" id="路径" fill="#BF4C19"></path>
                        <path d="M4.87335683,1.44988338 L4.87335683,4.93829687 C4.87335683,6.63966705 6.2803262,8.03170357 8,8.03170357 C9.7196502,8.03170357 11.1266432,6.63966705 11.1266432,4.93829687 L11.1266432,1.44988338 L4.87335683,1.44988338 Z" id="路径" fill="#DC8C57"></path>
                        <path d="M11.1266432,1.44988338 L11.1266432,4.93829687 C11.1266432,6.63966705 9.7196502,8.03172691 8,8.03172691 C6.28030261,8.03172691 4.87333324,6.6396904 4.87333324,4.93829687 L4.87333324,1.44988338 L11.1266432,1.44988338 M11.5796906,1.00165187 L4.42028579,1.00165187 L4.42028579,4.93829687 C4.42028579,6.8911772 6.02613735,8.47993508 8,8.47993508 C9.97386265,8.47993508 11.5796906,6.89115385 11.5796906,4.93829687 L11.5796906,1.00165187 Z" id="形状" fill="#FFFFFF"></path>
                        <path d="M0,13.0850405 C0,15.9127832 1.52479133,18.5257252 4,19.9395965 C6.4752086,21.3534678 9.5247914,21.3534678 12,19.9395965 C14.4752087,18.5257252 16,15.9127832 16,13.0850405 C16,8.71372919 12.418278,5.17008119 8,5.17008119 C3.581722,5.17008119 0,8.71372919 0,13.0850405 L0,13.0850405 Z" id="路径" fill="#FCC181"></path>
                        <path d="M2.09950598,13.0850405 C2.09950598,16.3091526 4.74124714,18.9228118 8,18.9228118 C11.2587529,18.9228118 13.900494,16.3091526 13.900494,13.0850405 C13.900494,9.86092848 11.2587529,7.24726925 8,7.24726925 C4.74124714,7.24726925 2.09950598,9.86092848 2.09950598,13.0850405 L2.09950598,13.0850405 Z" id="路径" fill="#FFE6BF"></path>
                        <path d="M8,7.24726925 C11.2587515,7.24726925 13.900494,9.8609298 13.900494,13.0850405 C13.900494,16.3091513 11.2587515,18.9228118 8,18.9228118 C4.74122488,18.9228118 2.09950598,16.3091513 2.09950598,13.0850405 C2.09950598,9.8609298 4.74124847,7.24726925 8,7.24726925 M8,6.6869857 C4.43418324,6.6869857 1.53320258,9.55715205 1.53320258,13.0850405 C1.53320258,16.612929 4.43418324,19.4830954 8,19.4830954 C11.5658168,19.4830954 14.4667974,16.612929 14.4667974,13.0850172 C14.4667974,9.55710536 11.5658168,6.6869857 8,6.6869857 Z" id="形状" fill="#FFFFFF"></path>
                        <path d="M14.4653817,1.44990673 L1.53461828,1.44990673 C1.13161581,1.44990673 0.801875802,1.12367188 0.801875802,0.724953363 C0.801875802,0.326234849 1.13161581,0 1.53461828,0 L14.4653581,0 C14.8683606,0 15.1981006,0.326234849 15.1981006,0.724953363 C15.1981006,1.12367188 14.8683842,1.44990673 14.4653817,1.44990673 L14.4653817,1.44990673 Z" id="路径" fill="#231815"></path>
                        <path d="M10.7237823,14.8779432 C10.7237823,15.3606307 10.6130746,15.7908172 10.3916356,16.1685726 C10.1701966,16.5464448 9.86051231,16.8400445 9.46265355,17.0496052 C9.06458244,17.2591658 8.60898674,17.3640045 8.09555972,17.3640045 C7.48579434,17.3640045 6.96106531,17.2259004 6.52151421,16.9495987 C6.08184513,16.6733904 5.78178762,16.2941176 5.62141246,15.8114068 L6.51677162,15.2875635 C6.63854537,15.6304194 6.83443099,15.8970799 7.10398018,16.087615 C7.37352937,16.2781269 7.70402442,16.3733478 8.09555972,16.3733478 C8.5319019,16.3733478 8.88330212,16.2352436 9.14973677,15.9590353 C9.41595906,15.682827 9.54924717,15.3225797 9.54924717,14.8779666 C9.54924717,14.4207709 9.41595906,14.0621577 9.14973677,13.8017067 C8.88327852,13.5413725 8.51916061,13.4111587 8.05705269,13.4111587 C7.58852694,13.4111587 7.23877837,13.5604213 7.00773621,13.8588299 L6.32418929,13.125426 L8.88495377,10.4680184 L5.93907183,10.4680184 L5.93907183,9.46781389 L10.3676395,9.46781389 L10.3676395,10.2774833 L8.31699872,12.4205719 C8.77910663,12.4269215 9.19310436,12.5348183 9.55887393,12.744379 C9.92476147,12.9539396 10.2102373,13.2444813 10.4157497,13.6158871 C10.6210261,13.9873863 10.7237823,14.4081417 10.7237823,14.8779432 L10.7237823,14.8779432 Z" id="路径" fill="#000000"></path>
                    </g>
                </g>
            </g>
        </g>
    </g>
</svg>