<?xml version="1.0" encoding="UTF-8"?>
<svg width="32px" height="32px" viewBox="0 0 32 32" version="1.1" xmlns="http://www.w3.org/2000/svg" xmlns:xlink="http://www.w3.org/1999/xlink">
    <title>头像</title>
    <g id="工作台" stroke="none" stroke-width="1" fill="none" fill-rule="evenodd">
        <g id="得鹿ONE知乎助手---素材库" transform="translate(-1338.000000, -16.000000)">
            <g id="头像" transform="translate(1338.000000, 16.000000)">
                <rect id="矩形" x="0" y="0" width="32" height="32"></rect>
                <g id="编组-2" transform="translate(4.000000, 3.999999)">
                    <circle id="椭圆形" fill="#FFFFFF" cx="12" cy="12.0000007" r="12"></circle>
                    <path d="M15.7051046,8.00873442 L15.7051046,8.70824072 C15.7041128,9.98709241 15.0890326,11.1876678 14.0516765,11.9355681 C13.0143203,12.6834684 11.6809051,12.8876954 10.4672555,12.4845609 C11.0283303,12.8811371 11.5540723,13.3254739 12.0386102,13.8126091 L15.8470334,13.8126091 C17.4100699,13.8126091 18.6771615,15.0797006 18.6771615,16.6427372 C18.6771614,18.2057738 17.4100699,19.4728653 15.8470334,19.4728653 L15.1948367,19.4728653 C15.4167631,20.387924 15.5301857,21.3259289 15.5327624,22.2675112 C15.5329786,22.6737875 15.5126772,23.0798155 15.4719358,23.4840439 C19.2510743,22.3388325 22.2269609,19.4109439 23.4334663,15.6509251 C19.7875582,14.4792408 16.9175937,11.6412763 15.7051046,8.00873442 Z M8.96686521,11.5755406 C7.79774877,10.4502302 7.42947203,8.72753237 8.03629001,7.22256434 C8.64310798,5.71759631 10.1033285,4.73216661 11.7260289,4.73254432 L15.1052864,4.73254432 C15.0985278,4.56470787 15.0951486,4.395745 15.0951486,4.22565572 C15.0948987,2.98643049 15.2869865,1.75467413 15.6645535,0.574368046 C12.2189222,-0.531943907 8.45800379,-0.0236948939 5.42961878,1.95751302 C2.40123376,3.93872093 0.429045905,7.18114283 0.0625218516,10.7814151 C3.02209534,9.88901383 6.21191979,10.1734953 8.96686521,11.5755406 Z" id="形状" fill="#0072EF" fill-rule="nonzero"></path>
                    <path d="M23.7511165,9.58008912 C19.7974747,8.17191012 16.8651702,4.80277046 16.0159962,0.692642061 C15.8993643,0.651701297 15.7822069,0.612273316 15.6645535,0.574368046 C15.2869865,1.75467413 15.0948987,2.98643049 15.0951483,4.22565572 C15.0951483,4.39236575 15.0985278,4.56132862 15.1052864,4.73254432 L15.7051046,4.73254432 L15.7051046,8.00873442 C16.9162176,11.6397351 19.7833815,14.4774117 23.4267078,15.6509251 C24.0507994,13.6880928 24.1624747,11.598253 23.7511165,9.58008912 L23.7511165,9.58008912 Z M15.1948367,19.4728653 L7.99025981,19.4728653 C6.42722322,19.4728653 5.16013171,18.2057738 5.1601317,16.6427372 C5.1601317,15.0797006 6.42722321,13.8126091 7.99025981,13.8126091 L12.0453687,13.8126091 C11.5608308,13.3254739 11.0350888,12.8811371 10.474014,12.4845609 C9.91265362,12.2965858 9.40014321,11.9860784 8.97362372,11.5755406 C6.21677277,10.1717089 3.02416693,9.88719531 0.0625218516,10.7814151 C-0.346208409,14.7728193 1.26753876,18.7043036 4.36261875,21.2575069 C7.45769874,23.8107102 11.6242845,24.6475567 15.4651773,23.4874231 C15.5059187,23.0831947 15.5262201,22.6771667 15.5260056,22.2708904 C15.5260056,21.3284449 15.4147502,20.389294 15.1948367,19.4728653 L15.1948367,19.4728653 Z" id="形状" fill="#338EF2" fill-rule="nonzero"></path>
                    <path d="M23.7511165,9.58008912 C22.9013276,5.47026537 19.9692515,2.10138804 16.0159962,0.692642061 C16.8651702,4.80277046 19.7974747,8.17191012 23.7511165,9.58008912 Z" id="路径" fill="#53A0F4" fill-rule="nonzero"></path>
                </g>
            </g>
        </g>
    </g>
</svg>